<svg width="160" height="100" viewBox="0 0 160 100" fill="none" xmlns="http://www.w3.org/2000/svg">
<g clip-path="url(#clip0)">
<rect width="160" height="100" rx="8" fill="white"/>
<path d="M23.8203 36.2972C20.998 35.7581 18.1367 36.057 15.293 36.0199C15.2051 36.0179 15.1172 36.1136 15.0645 36.1449V56.8577C17.5996 56.8343 20.084 56.9417 22.5645 56.762C27.6602 56.3909 31.9043 52.1585 32.1797 47.2034C32.4863 41.6624 29.1797 37.3226 23.8203 36.2972ZM26.7754 50.5257C25.4219 52.5882 22.748 53.6488 19.0996 53.221V39.7386C21.9902 39.0531 25.2363 40.182 26.7578 42.3792C28.4004 44.7484 28.3867 48.0726 26.7754 50.5257ZM142.48 52.4359C141.43 51.0218 140.381 49.6038 139.281 48.1195C139.682 47.9788 139.988 47.8773 140.293 47.764C141.734 47.2288 142.828 46.3031 143.451 44.8831C145.145 41.0238 143.174 37.1527 139.066 36.2718C136.768 35.7777 134.434 36.0726 132.115 36.0062C131.627 35.9925 131.139 36.0042 130.605 36.0042V56.7855H134.652V48.6507C135.289 48.4046 135.398 48.8929 135.596 49.182C137.322 51.7191 139.035 54.264 140.742 56.7952H145.723C144.582 55.2601 143.529 53.848 142.48 52.4359ZM134.676 45.6156V39.3245C136.33 39.2659 137.98 39.098 139.188 40.5394C139.91 41.4027 139.977 43.1624 139.316 44.1449C138.197 45.8128 136.461 45.6429 134.676 45.6156ZM116.396 56.7913H127.822V53.3773C125.334 53.2406 122.885 53.4613 120.428 53.2757V47.721H127.494V44.1624H120.469V39.5687H127.828V36.0531H116.396V56.7913ZM104.43 49.973L98.9277 36.0784H94.4082C97.3906 43.2542 100.326 50.3206 103.25 57.3616H105.455C108.445 50.2796 111.434 43.2093 114.459 36.0452H110.02C108.18 40.6331 106.352 45.1859 104.43 49.973ZM50.3828 44.9866C49.7637 44.68 49.123 44.4144 48.4805 44.1624C47.6816 43.8499 46.8711 43.5706 46.1152 43.1566C45.3574 42.7406 44.8457 42.1839 44.9277 41.2445C45.0059 40.3324 45.5527 39.7757 46.3418 39.4613C47.8535 38.8558 49.2656 39.0472 50.541 40.0999C50.7637 40.2835 50.9063 40.5882 51.3066 40.639C51.9766 39.7972 52.6563 38.9417 53.3301 38.0941C51.0469 35.7757 46.8848 35.0218 44.082 36.3949C41.8984 37.4652 40.7441 39.2445 40.6777 41.68C40.6133 44.0824 41.8672 45.6292 43.9766 46.5765C44.6836 46.8929 45.4043 47.1742 46.1211 47.4671C46.8379 47.7601 47.5742 48.012 48.2715 48.3441C49.4004 48.8812 49.9277 49.7855 49.8359 50.932C49.7383 52.1585 49.1074 52.9964 47.9492 53.4183C46.3594 53.9984 44.3145 53.432 43.1094 52.0687C42.7988 51.7191 42.5332 51.3304 42.2891 51.014C41.4648 51.8265 40.6445 52.6351 39.7734 53.4925C41.6699 56.6214 45.3965 58.0804 49.0527 57.1175C51.9531 56.3519 53.7363 54.2425 54.0547 51.1956C54.3672 48.2445 53.2969 46.4261 50.3828 44.9866ZM61.8672 51.9378C59.3125 49.6312 58.7617 45.4749 60.6387 42.512C61.5273 41.1077 62.7441 40.0941 64.3496 39.6058C67.0254 38.7913 69.332 39.5355 71.3867 41.5316V36.889C67.3789 34.4339 61.4922 35.4652 58.1621 39.1741C54.6094 43.1331 54.3516 48.9163 57.5449 53.0687C60.7129 57.1878 66.6621 58.5277 71.3555 56.1527C71.5371 54.5609 71.4766 52.1077 71.2481 51.5531C67.9004 54.1507 64.4766 54.2913 61.8672 51.9378ZM34.1309 56.7972H38.0645V36.0413H34.1309V56.7972Z" fill="black"/>
<path d="M72.8711 46.4824C72.8711 49.4091 74.0337 52.216 76.1032 54.2854C78.1727 56.3549 80.9795 57.5176 83.9062 57.5176C86.833 57.5176 89.6398 56.3549 91.7093 54.2854C93.7788 52.216 94.9414 49.4091 94.9414 46.4824C94.9414 43.5557 93.7788 40.7489 91.7093 38.6794C89.6398 36.6099 86.833 35.4473 83.9062 35.4473C80.9795 35.4473 78.1727 36.6099 76.1032 38.6794C74.0337 40.7489 72.8711 43.5557 72.8711 46.4824Z" fill="#F07824"/>
<path d="M145.541 36.541H144.793V38.0859H145.107V37.4395H145.527L146.09 38.0859H146.447L145.848 37.4141C146.164 37.3613 146.373 37.2187 146.373 36.9785C146.373 36.6543 146.023 36.541 145.541 36.541ZM145.109 37.2715V36.707H145.498C145.861 36.707 146.061 36.7773 146.061 36.9785C146.061 37.1758 145.861 37.2715 145.498 37.2715H145.109Z" fill="black"/>
<path d="M145.619 35.6582C144.707 35.6582 143.965 36.4004 143.965 37.3145C143.965 38.2266 144.707 38.9688 145.619 38.9688C146.531 38.9688 147.275 38.2266 147.275 37.3145C147.275 36.4004 146.533 35.6582 145.619 35.6582ZM145.619 38.748C144.828 38.748 144.186 38.1035 144.186 37.3145C144.186 36.5234 144.83 35.8809 145.619 35.8809C146.41 35.8809 147.053 36.5234 147.053 37.3145C147.055 38.1035 146.41 38.748 145.619 38.748Z" fill="black"/>
<path d="M158 58.124C137.198 72.6991 81.2803 92.654 47 100H148.622C152.274 100 155.586 98.4624 158 95.9697V58.124Z" fill="#F07824"/>
<path fill-rule="evenodd" clip-rule="evenodd" d="M152 2H8C4.68629 2 2 4.68629 2 8V92C2 95.3137 4.68629 98 8 98H152C155.314 98 158 95.3137 158 92V8C158 4.68629 155.314 2 152 2ZM8 0C3.58172 0 0 3.58172 0 8V92C0 96.4183 3.58172 100 8 100H152C156.418 100 160 96.4183 160 92V8C160 3.58172 156.418 0 152 0H8Z" fill="#D8D8D8"/>
</g>
<defs>
<clipPath id="clip0">
<rect width="160" height="100" fill="white"/>
</clipPath>
</defs>
</svg>
