<svg width="160" height="100" viewBox="0 0 160 100" fill="none" xmlns="http://www.w3.org/2000/svg">
<path d="M0 6C0 2.68629 2.68629 0 6 0H154C157.314 0 160 2.68629 160 6V94C160 97.3137 157.314 100 154 100H6C2.6863 100 0 97.3137 0 94V6Z" fill="white"/>
<path fill-rule="evenodd" clip-rule="evenodd" d="M152 2H8C4.68629 2 2 4.68629 2 8V92C2 95.3137 4.68629 98 8 98H152C155.314 98 158 95.3137 158 92V8C158 4.68629 155.314 2 152 2ZM8 0C3.58172 0 0 3.58172 0 8V92C0 96.4183 3.58172 100 8 100H152C156.418 100 160 96.4183 160 92V8C160 3.58172 156.418 0 152 0H8Z" fill="#D8D8D8"/>
<path d="M35.1387 46C35.1387 53.2883 38.0339 60.278 43.1875 65.4316C48.3411 70.5852 55.3309 73.4805 62.6191 73.4805C69.9074 73.4805 76.8972 70.5852 82.0508 65.4316C87.2044 60.278 90.0996 53.2883 90.0996 46C90.0996 38.7117 87.2044 31.722 82.0508 26.5684C76.8972 21.4148 69.9074 18.5195 62.6191 18.5195C55.3309 18.5195 48.3411 21.4148 43.1875 26.5684C38.0339 31.722 35.1387 38.7117 35.1387 46Z" fill="#EA001B"/>
<path d="M69.9004 46C69.9004 49.6088 70.6112 53.1822 71.9922 56.5163C73.3732 59.8504 75.3974 62.8798 77.9492 65.4316C80.501 67.9834 83.5305 70.0076 86.8645 71.3886C90.1986 72.7697 93.7721 73.4805 97.3809 73.4805C100.99 73.4805 104.563 72.7697 107.897 71.3886C111.231 70.0076 114.261 67.9834 116.812 65.4316C119.364 62.8798 121.388 59.8504 122.77 56.5163C124.151 53.1822 124.861 49.6088 124.861 46C124.861 42.3912 124.151 38.8178 122.77 35.4837C121.388 32.1496 119.364 29.1202 116.812 26.5684C114.261 24.0166 111.231 21.9924 107.897 20.6114C104.563 19.2303 100.99 18.5195 97.3809 18.5195C93.7721 18.5195 90.1986 19.2303 86.8645 20.6114C83.5305 21.9924 80.501 24.0166 77.9492 26.5684C75.3974 29.1202 73.3732 32.1496 71.9922 35.4837C70.6112 38.8178 69.9004 42.3912 69.9004 46Z" fill="#00A5FF"/>
<path d="M69.9512 46.0512C69.9512 54.605 73.86 62.2462 79.9877 67.285C86.1893 62.2462 90.1514 54.5599 90.1514 45.9486C90.1514 37.3948 86.2426 29.7536 80.1148 24.7148C73.9133 29.7536 69.9512 37.4379 69.9512 46.0512Z" fill="#7475CF"/>
<path d="M122.57 59.769H122.913V60.6611H123.067V59.769H123.409V59.6357H122.57V59.769ZM124.432 59.6357L124.078 60.4581H124.074L123.717 59.6357H123.532V60.6611H123.688V59.929H123.694L124.008 60.6611H124.141L124.455 59.929H124.461V60.6611H124.617V59.6357H124.432Z" fill="#00A5FF"/>
<path d="M52.2232 79.8704C51.526 79.8704 50.8061 80.1719 50.0679 80.7974C49.951 80.58 50.1109 80.34 49.91 80.1144C49.67 80.1042 49.4178 80.0919 49.1614 80.0919C48.9256 80.0919 48.6836 80.1021 48.4375 80.137V87.4419H49.9387C50.0699 87.2327 50.0269 87.0645 50.0269 86.9046C50.031 85.8013 50.0269 84.6959 50.0289 83.5926C50.0289 83.2952 50.0351 82.9999 50.113 82.7107C50.3304 81.9027 50.9579 81.4311 51.809 81.4311C51.8479 81.4311 51.889 81.4331 51.9279 81.4331C52.738 81.4741 53.2404 81.9581 53.3799 82.844C53.4106 83.0389 53.4147 83.2378 53.4168 83.4347C53.4209 84.62 53.4209 85.8074 53.4229 86.9928C53.4229 87.1384 53.384 87.2922 53.548 87.4644C53.6198 87.4603 53.6916 87.4583 53.7654 87.4583C53.9808 87.4583 54.2043 87.4726 54.4258 87.4726C54.6083 87.4726 54.7908 87.4645 54.9672 87.4296C55.0882 87.2225 55.0492 87.0543 55.0492 86.8923C55.0533 85.7726 55.0513 84.6508 55.0513 83.5311C55.0513 83.2337 55.0677 82.9384 55.1518 82.6513C55.3773 81.8925 56.0172 81.4249 56.8108 81.4249C56.8621 81.4249 56.9134 81.427 56.9646 81.4311C57.7911 81.4926 58.2853 81.9663 58.4186 82.8461C58.4474 83.0409 58.4474 83.2398 58.4474 83.4367C58.4494 84.5892 58.4474 85.7438 58.4515 86.8964C58.4515 87.0727 58.4022 87.2614 58.5355 87.4296H60.0265C60.0572 87.3476 60.09 87.3024 60.09 87.2573C60.088 85.6762 60.1249 84.093 60.0634 82.5139C60.0162 81.3183 59.3948 80.4344 58.2259 80.0796C57.826 79.9586 57.4322 79.8909 57.0508 79.8909C56.2981 79.8909 55.5906 80.1473 54.9631 80.7543C54.8482 80.8671 54.7806 81.0291 54.6042 81.0968C53.8372 80.2888 53.0436 79.8704 52.2232 79.8704ZM64.9606 79.9237C64.0624 79.9237 63.2195 80.2929 62.5305 81.025C61.2159 82.4216 61.1195 84.8046 62.3233 86.2996C62.8812 86.9928 63.601 87.446 64.4787 87.5916C64.7248 87.6326 64.9647 87.6531 65.2006 87.6531C66.025 87.6531 66.7797 87.3845 67.4072 86.7098C67.5815 86.962 67.3621 87.2266 67.5897 87.4357H69.0581V80.1001C69.0048 80.1021 68.9535 80.1021 68.9022 80.1021C68.6315 80.1021 68.3731 80.0857 68.125 80.0857C67.9281 80.0857 67.7394 80.096 67.5569 80.1329C67.4052 80.3769 67.5631 80.6128 67.4195 80.7994C66.6013 80.2149 65.7584 79.9237 64.9606 79.9237ZM65.3954 86.1232H65.3544C64.0275 86.1007 63.1313 85.1245 63.156 83.7341C63.1806 82.3806 64.0952 81.429 65.3605 81.4269H65.3954C66.6648 81.4454 67.6 82.4646 67.5754 83.7997C67.5487 85.1635 66.6443 86.1232 65.3954 86.1232ZM74.1625 79.8848C73.0571 79.8848 71.9805 80.3893 71.3222 81.2793C70.4793 82.4175 70.3603 83.7074 70.7233 85.0404C71.113 86.4657 72.0892 87.2983 73.5186 87.5752C73.818 87.6326 74.1194 87.6634 74.4188 87.6634C74.8885 87.6634 75.3561 87.5916 75.8134 87.4501C76.3753 87.2758 76.9044 87.0338 77.3289 86.5806C77.0623 86.1848 76.8183 85.8238 76.5783 85.467C75.6678 85.8997 74.868 86.115 74.2097 86.115C73.1269 86.115 72.4296 85.5326 72.2655 84.3801H77.6427C77.7657 83.8633 77.7268 83.4203 77.6488 82.9855C77.3884 81.5049 76.6234 80.4303 75.1202 80.014C74.8064 79.9278 74.4824 79.8848 74.1625 79.8848ZM72.3045 83.0635C72.364 82.0893 73.094 81.3941 74.0743 81.3572C74.1051 81.3552 74.1379 81.3552 74.1687 81.3552C75.1653 81.3552 75.8277 81.9581 75.9856 83.0635H72.3045ZM82.5338 79.8848C81.8857 79.8848 81.2356 80.014 80.5773 80.3052C79.7119 80.6866 79.3059 81.4269 79.3469 82.3765C79.3858 83.2768 79.9252 83.8017 80.7086 84.1422C81.3402 84.4149 82.017 84.4518 82.6814 84.5646C82.9891 84.618 83.3028 84.6631 83.5776 84.823C84.0083 85.0712 84.0473 85.5121 83.674 85.8382C83.4833 86.0043 83.2536 86.0945 83.0055 86.1355C82.7512 86.1786 82.4989 86.1991 82.2446 86.1991C82.0067 86.1991 81.7688 86.1807 81.5309 86.1458C80.9055 86.0556 80.3497 85.7869 79.7919 85.4567L79.0782 86.64C79.1254 86.7139 79.1377 86.7467 79.1603 86.7672C79.1972 86.8 79.2402 86.8246 79.2812 86.8492C80.1836 87.4173 81.1454 87.6511 82.1421 87.6511C82.5461 87.6511 82.9542 87.6121 83.3685 87.5424C83.9755 87.4398 84.5312 87.1917 84.9824 86.7467C85.9852 85.7541 85.7679 84.1606 84.5374 83.4859C84.2605 83.3342 83.9673 83.2357 83.6638 83.1558C83.0731 83.0019 82.46 82.9753 81.8652 82.8522C81.4981 82.7764 81.0921 82.6943 81.0511 82.2042C81.0203 81.8391 81.3464 81.5213 81.8591 81.4105C82.0498 81.3695 82.2426 81.3531 82.4333 81.3531C82.7163 81.3531 82.9973 81.39 83.2803 81.4434C83.7807 81.5377 84.2462 81.7366 84.7425 81.9622C84.9763 81.5192 85.1937 81.1091 85.4398 80.6415C84.4615 80.1739 83.4997 79.8848 82.5338 79.8848ZM89.7853 77.8955H88.1652V80.0324C87.9766 80.0857 87.792 80.096 87.6095 80.096C87.4844 80.096 87.3613 80.0919 87.2383 80.0919C87.0517 80.0919 86.8671 80.1042 86.6825 80.1596C86.6497 80.621 86.6251 81.0722 86.6928 81.5233C86.8568 81.5643 87.0189 81.5746 87.1809 81.5746C87.3265 81.5746 87.468 81.5664 87.6095 81.5664C87.7838 81.5664 87.952 81.5787 88.116 81.6341C88.2022 81.8412 88.1673 82.0258 88.1693 82.2021C88.1734 83.207 88.157 84.2099 88.1775 85.2147C88.1939 86.0535 88.4134 86.8184 89.1824 87.2963C89.5659 87.5362 90.1012 87.6511 90.6569 87.6511C91.4116 87.6511 92.2053 87.4378 92.7159 87.0338C92.5765 86.6031 92.4739 86.1478 92.2401 85.7418C91.9264 85.8546 91.67 85.9735 91.3993 86.0371C91.1881 86.0884 90.9994 86.113 90.8312 86.113C90.1319 86.113 89.8018 85.6741 89.7997 84.7697C89.7976 83.8981 89.7956 83.0245 89.8018 82.1529C89.8018 81.9766 89.7505 81.7899 89.931 81.5643H92.3755C92.4452 81.0599 92.4268 80.623 92.3816 80.0796H89.7915C89.7854 79.3167 89.7853 78.6194 89.7853 77.8955ZM97.6911 79.9114C96.9897 79.9114 96.3704 80.1719 95.8434 80.8179C95.6998 80.5615 95.8659 80.3236 95.6834 80.1206C95.4578 80.1001 95.2261 80.0898 94.9902 80.0898C94.738 80.0898 94.4755 80.1001 94.2027 80.1185V87.4357C94.4734 87.4542 94.7318 87.4665 94.9923 87.4665C95.2527 87.4665 95.5111 87.4542 95.7839 87.4275V83.5413C95.7839 83.2275 95.7818 82.9158 95.8598 82.6103C96.0525 81.8535 96.5365 81.4577 97.3056 81.4577H97.3589C97.6809 81.4659 98.0028 81.5274 98.3638 81.5705C98.5217 81.0906 98.6775 80.6169 98.8477 80.1021C98.4376 79.9811 98.0541 79.9114 97.6911 79.9114ZM110.755 86.759H110.408V87.4768H110.556V87.1753H110.75L111.011 87.4768H111.177L110.898 87.165C111.046 87.1404 111.142 87.0748 111.142 86.962C111.142 86.8123 110.98 86.759 110.755 86.759ZM110.556 87.0994V86.8369H110.736C110.904 86.8369 110.997 86.8697 110.997 86.962C110.997 87.0543 110.904 87.0994 110.736 87.0994H110.556Z" fill="black"/>
<path d="M110.792 86.3496C110.368 86.3496 110.023 86.6941 110.023 87.1187C110.023 87.5432 110.368 87.8877 110.792 87.8877C111.217 87.8877 111.562 87.5432 111.562 87.1187C111.562 86.6941 111.217 86.3496 110.792 86.3496ZM110.792 87.7852C110.425 87.7852 110.126 87.4857 110.126 87.1187C110.126 86.7516 110.425 86.4521 110.792 86.4521C111.16 86.4521 111.459 86.7516 111.459 87.1187C111.459 87.4857 111.162 87.7852 110.792 87.7852Z" fill="black"/>
<path d="M102.825 81.2734C104.074 81.2734 105.091 82.3768 105.091 83.7344C105.091 85.092 104.074 86.1953 102.825 86.1953C101.576 86.1953 100.559 85.092 100.559 83.7344C100.559 82.3768 101.576 81.2734 102.825 81.2734ZM102.825 79.8379C100.78 79.8379 99.123 81.5831 99.123 83.7344C99.123 85.8856 100.78 87.6309 102.825 87.6309C104.869 87.6309 106.526 85.8856 106.526 83.7344C106.526 81.5831 104.869 79.8379 102.825 79.8379Z" fill="black"/>
</svg>
