<svg width="160" height="100" viewBox="0 0 160 100" fill="none" xmlns="http://www.w3.org/2000/svg">
<path d="M0 6C0 2.68629 2.68629 0 6 0H154C157.314 0 160 2.68629 160 6V94C160 97.3137 157.314 100 154 100H6C2.6863 100 0 97.3137 0 94V6Z" fill="white"/>
<g clip-path="url(#clip0)">
<path d="M100.776 36.1436H91.5544C90.9341 36.1436 90.3965 36.5805 90.2725 37.1763L86.5506 59.856C86.4679 60.2929 86.8401 60.6901 87.295 60.6901H92.0093C92.4642 60.6901 92.8364 60.3723 92.8778 59.9752L93.953 53.5406C94.0357 52.9448 94.5733 52.5079 95.2349 52.5079H98.1297C104.209 52.5079 107.682 49.6878 108.592 44.0874C109.006 41.6645 108.592 39.7183 107.434 38.3678C106.194 36.8982 103.878 36.1436 100.776 36.1436ZM101.852 44.4052C101.355 47.5827 98.8327 47.5827 96.3929 47.5827H94.9868L95.9793 41.6645C96.0207 41.3071 96.3515 41.029 96.7237 41.029H97.344C98.9981 41.029 100.57 41.029 101.397 41.9426C101.893 42.4986 102.017 43.293 101.852 44.4052Z" fill="#009CDE"/>
<path d="M35.1525 36.1436H25.9306C25.3102 36.1436 24.7726 36.5805 24.6486 37.1763L20.9267 59.856C20.844 60.2929 21.2162 60.6901 21.6711 60.6901H26.0546C26.6749 60.6901 27.2125 60.2532 27.3366 59.6574L28.3291 53.5406C28.4118 52.9448 28.9494 52.5079 29.611 52.5079H32.5058C38.5848 52.5079 42.0586 49.6878 42.9683 44.0874C43.3819 41.6645 42.9683 39.7183 41.8104 38.3678C40.5698 36.8982 38.254 36.1436 35.1525 36.1436ZM36.2277 44.4052C35.7314 47.5827 33.2088 47.5827 30.769 47.5827H29.3629L30.3554 41.6645C30.3968 41.3071 30.7276 41.029 31.0998 41.029H31.7201C33.3743 41.029 34.9457 41.029 35.7728 41.9426C36.269 42.4986 36.3931 43.293 36.2277 44.4052ZM62.6528 44.286H58.2279C57.8557 44.286 57.5249 44.5641 57.4836 44.9215L57.2768 46.1131L56.9873 45.6762C56.0362 44.3655 53.9271 43.8888 51.7767 43.8888C46.897 43.8888 42.7616 47.4238 41.9345 52.3888C41.521 54.8514 42.0999 57.2345 43.5887 58.9027C44.9533 60.4121 46.8556 61.0476 49.1301 61.0476C53.0587 61.0476 55.2091 58.6247 55.2091 58.6247L55.0023 59.8163C54.9196 60.2532 55.2918 60.6504 55.7467 60.6504H59.7167C60.337 60.6504 60.8746 60.2135 60.9986 59.6177L63.3972 45.1201C63.4799 44.7229 63.149 44.286 62.6528 44.286ZM56.5324 52.5476C56.1189 54.9705 54.0925 56.599 51.5699 56.599C50.288 56.599 49.2541 56.2018 48.5925 55.4472C47.9308 54.6925 47.6827 53.6598 47.8895 52.4682C48.303 50.085 50.3293 48.3771 52.8106 48.3771C54.0512 48.3771 55.085 48.7743 55.7467 49.529C56.4497 50.3234 56.7392 51.3561 56.5324 52.5476Z" fill="#003087"/>
<path d="M128.278 44.2859H123.853C123.481 44.2859 123.15 44.5639 123.109 44.9214L122.902 46.113L122.613 45.676C121.662 44.3653 119.553 43.8887 117.402 43.8887C112.522 43.8887 108.387 47.4237 107.56 52.3886C107.146 54.8512 107.725 57.2344 109.214 58.9026C110.579 60.4119 112.481 61.0474 114.755 61.0474C118.684 61.0474 120.835 58.6245 120.835 58.6245L120.628 59.8161C120.545 60.253 120.917 60.6502 121.372 60.6502H125.342C125.962 60.6502 126.5 60.2133 126.624 59.6175L129.023 45.12C129.105 44.7228 128.774 44.2859 128.278 44.2859ZM122.158 52.5475C121.744 54.9704 119.718 56.5989 117.195 56.5989C115.913 56.5989 114.88 56.2017 114.218 55.447C113.556 54.6923 113.308 53.6596 113.515 52.468C113.928 50.0849 115.955 48.377 118.436 48.377C119.677 48.377 120.71 48.7742 121.372 49.5288C122.075 50.3232 122.365 51.3559 122.158 52.5475Z" fill="#009CDE"/>
<path d="M86.1397 44.2861H81.7149C81.3013 44.2861 80.8878 44.4847 80.6397 44.8422L74.5193 53.501L71.914 45.1997C71.7486 44.6833 71.2524 44.3259 70.6734 44.3259H66.3313C65.7937 44.3259 65.4215 44.8422 65.5869 45.3188L70.4666 59.0617L65.8764 65.2579C65.5042 65.7346 65.8764 66.4098 66.4967 66.4098H70.9215C71.3351 66.4098 71.7486 66.2112 71.9554 65.8934L86.6774 45.4777C87.1322 44.9614 86.7601 44.2861 86.1397 44.2861Z" fill="#003087"/>
<path d="M133.488 36.739L129.725 59.816C129.642 60.2529 130.015 60.6501 130.469 60.6501H134.274C134.894 60.6501 135.432 60.2132 135.556 59.6174L139.278 36.9376C139.36 36.5007 138.988 36.1035 138.533 36.1035H134.274C133.86 36.1432 133.53 36.3816 133.488 36.739Z" fill="#009CDE"/>
</g>
<path fill-rule="evenodd" clip-rule="evenodd" d="M152 2H8C4.68629 2 2 4.68629 2 8V92C2 95.3137 4.68629 98 8 98H152C155.314 98 158 95.3137 158 92V8C158 4.68629 155.314 2 152 2ZM8 0C3.58172 0 0 3.58172 0 8V92C0 96.4183 3.58172 100 8 100H152C156.418 100 160 96.4183 160 92V8C160 3.58172 156.418 0 152 0H8Z" fill="#D8D8D8"/>
<defs>
<clipPath id="clip0">
<rect width="119.407" height="31" fill="white" transform="translate(20.2969 36)"/>
</clipPath>
</defs>
</svg>
